STARTFONT 2.1
FONT -FontForge-NotJamScrawl9-Medium-R-Normal--9-90-75-75-P-66-ISO10646-1
SIZE 9 75 75
FONTBOUNDINGBOX 12 13 0 -2
COMMENT "Generated by fontforge, http://fontforge.sourceforge.net"
COMMENT "NotJam"
STARTPROPERTIES 39
FOUNDRY "FontForge"
FAMILY_NAME "NotJamScrawl9"
WEIGHT_NAME "Medium"
SLANT "R"
SETWIDTH_NAME "Normal"
ADD_STYLE_NAME ""
PIXEL_SIZE 9
POINT_SIZE 90
RESOLUTION_X 75
RESOLUTION_Y 75
SPACING "P"
AVERAGE_WIDTH 66
CHARSET_REGISTRY "ISO10646"
CHARSET_ENCODING "1"
FONTNAME_REGISTRY ""
CHARSET_COLLECTIONS "ISO10646-1"
FONT_NAME "NotJamScrawl9"
FACE_NAME "NotJamScrawl9"
COPYRIGHT "NotJam"
FONT_VERSION "001.000"
FONT_ASCENT 7
FONT_DESCENT 2
UNDERLINE_POSITION -1
UNDERLINE_THICKNESS 1
X_HEIGHT 4
CAP_HEIGHT 6
RAW_ASCENT 777
RAW_DESCENT 222
NORM_SPACE 5
RELATIVE_WEIGHT 50
RELATIVE_SETWIDTH 50
SUPERSCRIPT_X 0
SUPERSCRIPT_Y 4
SUPERSCRIPT_SIZE 6
SUBSCRIPT_X 0
SUBSCRIPT_Y 1
SUBSCRIPT_SIZE 6
AVG_LOWERCASE_WIDTH 69
AVG_UPPERCASE_WIDTH 77
ENDPROPERTIES
CHARS 118
STARTCHAR space
ENCODING 32
SWIDTH 555 0
DWIDTH 5 0
BBX 1 1 0 0
BITMAP
00
ENDCHAR
STARTCHAR exclam
ENCODING 33
SWIDTH 333 0
DWIDTH 3 0
BBX 2 7 0 0
BITMAP
80
C0
C0
C0
C0
00
C0
ENDCHAR
STARTCHAR quotedbl
ENCODING 34
SWIDTH 666 0
DWIDTH 6 0
BBX 5 3 0 4
BITMAP
D8
D8
D8
ENDCHAR
STARTCHAR numbersign
ENCODING 35
SWIDTH 1445 0
DWIDTH 13 0
BBX 12 7 0 0
BITMAP
0C60
18C0
7FF0
3180
FFE0
3180
2100
ENDCHAR
STARTCHAR dollar
ENCODING 36
SWIDTH 666 0
DWIDTH 6 0
BBX 5 9 0 -2
BITMAP
20
20
78
E0
70
38
F0
20
20
ENDCHAR
STARTCHAR percent
ENCODING 37
SWIDTH 889 0
DWIDTH 8 0
BBX 7 7 0 0
BITMAP
CC
D8
18
30
30
36
26
ENDCHAR
STARTCHAR ampersand
ENCODING 38
SWIDTH 666 0
DWIDTH 6 0
BBX 5 9 0 -2
BITMAP
20
20
78
E0
70
E0
78
20
20
ENDCHAR
STARTCHAR quotesingle
ENCODING 39
SWIDTH 333 0
DWIDTH 3 0
BBX 2 3 0 4
BITMAP
C0
C0
C0
ENDCHAR
STARTCHAR parenleft
ENCODING 40
SWIDTH 555 0
DWIDTH 5 0
BBX 4 9 0 -2
BITMAP
30
60
60
C0
C0
C0
60
60
30
ENDCHAR
STARTCHAR parenright
ENCODING 41
SWIDTH 555 0
DWIDTH 5 0
BBX 4 9 0 -2
BITMAP
C0
60
60
30
30
30
60
60
C0
ENDCHAR
STARTCHAR asterisk
ENCODING 42
SWIDTH 555 0
DWIDTH 5 0
BBX 4 4 0 3
BITMAP
90
60
60
90
ENDCHAR
STARTCHAR plus
ENCODING 43
SWIDTH 778 0
DWIDTH 7 0
BBX 6 5 0 0
BITMAP
30
FC
FC
30
30
ENDCHAR
STARTCHAR comma
ENCODING 44
SWIDTH 333 0
DWIDTH 3 0
BBX 2 3 0 -1
BITMAP
C0
C0
40
ENDCHAR
STARTCHAR hyphen
ENCODING 45
SWIDTH 778 0
DWIDTH 7 0
BBX 6 2 0 2
BITMAP
FC
FC
ENDCHAR
STARTCHAR period
ENCODING 46
SWIDTH 333 0
DWIDTH 3 0
BBX 2 2 0 0
BITMAP
C0
C0
ENDCHAR
STARTCHAR slash
ENCODING 47
SWIDTH 555 0
DWIDTH 5 0
BBX 4 7 0 0
BITMAP
30
60
60
C0
C0
C0
80
ENDCHAR
STARTCHAR zero
ENCODING 48
SWIDTH 889 0
DWIDTH 8 0
BBX 7 7 0 0
BITMAP
38
6C
C6
C6
C6
6C
38
ENDCHAR
STARTCHAR one
ENCODING 49
SWIDTH 555 0
DWIDTH 5 0
BBX 4 7 0 0
BITMAP
20
60
E0
60
60
60
F0
ENDCHAR
STARTCHAR two
ENCODING 50
SWIDTH 778 0
DWIDTH 7 0
BBX 6 7 0 0
BITMAP
78
FC
9C
18
30
E0
FC
ENDCHAR
STARTCHAR three
ENCODING 51
SWIDTH 778 0
DWIDTH 7 0
BBX 6 7 0 0
BITMAP
FC
FC
18
38
0C
1C
F8
ENDCHAR
STARTCHAR four
ENCODING 52
SWIDTH 889 0
DWIDTH 8 0
BBX 7 7 0 0
BITMAP
48
CC
CC
FE
0C
08
08
ENDCHAR
STARTCHAR five
ENCODING 53
SWIDTH 778 0
DWIDTH 7 0
BBX 6 7 0 0
BITMAP
FC
F8
C0
F8
0C
1C
F8
ENDCHAR
STARTCHAR six
ENCODING 54
SWIDTH 778 0
DWIDTH 7 0
BBX 6 7 0 0
BITMAP
38
60
F8
CC
CC
CC
78
ENDCHAR
STARTCHAR seven
ENCODING 55
SWIDTH 778 0
DWIDTH 7 0
BBX 6 7 0 0
BITMAP
7C
FC
18
18
30
30
30
ENDCHAR
STARTCHAR eight
ENCODING 56
SWIDTH 778 0
DWIDTH 7 0
BBX 6 7 0 0
BITMAP
78
CC
78
CC
CC
CC
78
ENDCHAR
STARTCHAR nine
ENCODING 57
SWIDTH 778 0
DWIDTH 7 0
BBX 6 7 0 0
BITMAP
78
CC
CC
CC
7C
18
70
ENDCHAR
STARTCHAR colon
ENCODING 58
SWIDTH 333 0
DWIDTH 3 0
BBX 2 5 0 0
BITMAP
C0
C0
00
C0
C0
ENDCHAR
STARTCHAR semicolon
ENCODING 59
SWIDTH 333 0
DWIDTH 3 0
BBX 2 6 0 -1
BITMAP
C0
C0
00
C0
C0
40
ENDCHAR
STARTCHAR less
ENCODING 60
SWIDTH 778 0
DWIDTH 7 0
BBX 6 5 0 0
BITMAP
3C
70
E0
70
3C
ENDCHAR
STARTCHAR equal
ENCODING 61
SWIDTH 778 0
DWIDTH 7 0
BBX 6 5 0 0
BITMAP
78
FC
00
FC
78
ENDCHAR
STARTCHAR greater
ENCODING 62
SWIDTH 778 0
DWIDTH 7 0
BBX 6 5 0 0
BITMAP
F0
38
1C
38
F0
ENDCHAR
STARTCHAR question
ENCODING 63
SWIDTH 778 0
DWIDTH 7 0
BBX 6 7 0 0
BITMAP
78
FC
9C
18
30
00
30
ENDCHAR
STARTCHAR at
ENCODING 64
SWIDTH 1000 0
DWIDTH 9 0
BBX 8 8 0 -1
BITMAP
7E
E7
C3
DB
DE
C0
7F
3E
ENDCHAR
STARTCHAR A
ENCODING 65
SWIDTH 889 0
DWIDTH 8 0
BBX 7 7 0 0
BITMAP
7C
C6
C6
FE
C6
C4
44
ENDCHAR
STARTCHAR B
ENCODING 66
SWIDTH 778 0
DWIDTH 7 0
BBX 6 7 0 0
BITMAP
78
CC
CC
F8
CC
CC
F8
ENDCHAR
STARTCHAR C
ENCODING 67
SWIDTH 778 0
DWIDTH 7 0
BBX 6 7 0 0
BITMAP
7C
E4
C0
C0
C0
E0
7C
ENDCHAR
STARTCHAR D
ENCODING 68
SWIDTH 889 0
DWIDTH 8 0
BBX 7 7 0 0
BITMAP
78
CC
C6
C6
C6
CE
FC
ENDCHAR
STARTCHAR E
ENCODING 69
SWIDTH 666 0
DWIDTH 6 0
BBX 5 7 0 0
BITMAP
38
78
C0
F0
C0
E0
78
ENDCHAR
STARTCHAR F
ENCODING 70
SWIDTH 666 0
DWIDTH 6 0
BBX 5 7 0 0
BITMAP
78
F8
C0
F0
C0
C0
40
ENDCHAR
STARTCHAR G
ENCODING 71
SWIDTH 778 0
DWIDTH 7 0
BBX 6 7 0 0
BITMAP
7C
E4
C0
C0
CC
E4
7C
ENDCHAR
STARTCHAR H
ENCODING 72
SWIDTH 889 0
DWIDTH 8 0
BBX 7 7 0 0
BITMAP
44
C6
C6
FE
C6
C4
44
ENDCHAR
STARTCHAR I
ENCODING 73
SWIDTH 555 0
DWIDTH 5 0
BBX 4 7 0 0
BITMAP
F0
60
60
60
20
20
70
ENDCHAR
STARTCHAR J
ENCODING 74
SWIDTH 555 0
DWIDTH 5 0
BBX 4 9 0 -2
BITMAP
F0
60
60
60
60
60
40
C0
80
ENDCHAR
STARTCHAR K
ENCODING 75
SWIDTH 778 0
DWIDTH 7 0
BBX 6 7 0 0
BITMAP
8C
D8
F0
E0
F0
D8
CC
ENDCHAR
STARTCHAR L
ENCODING 76
SWIDTH 666 0
DWIDTH 6 0
BBX 5 7 0 0
BITMAP
40
40
C0
C0
C0
E0
F8
ENDCHAR
STARTCHAR M
ENCODING 77
SWIDTH 1112 0
DWIDTH 10 0
BBX 9 7 0 0
BITMAP
6300
F780
DD80
C980
C180
C100
4100
ENDCHAR
STARTCHAR N
ENCODING 78
SWIDTH 889 0
DWIDTH 8 0
BBX 7 7 0 0
BITMAP
44
E6
F6
DE
CE
C4
44
ENDCHAR
STARTCHAR O
ENCODING 79
SWIDTH 1000 0
DWIDTH 9 0
BBX 8 7 0 0
BITMAP
3E
67
C3
C3
C3
E6
7E
ENDCHAR
STARTCHAR P
ENCODING 80
SWIDTH 889 0
DWIDTH 8 0
BBX 7 7 0 0
BITMAP
7C
C6
C6
FC
C0
C0
40
ENDCHAR
STARTCHAR Q
ENCODING 81
SWIDTH 1000 0
DWIDTH 9 0
BBX 8 9 0 -2
BITMAP
3E
67
C3
C3
C3
E6
7E
3C
67
ENDCHAR
STARTCHAR R
ENCODING 82
SWIDTH 889 0
DWIDTH 8 0
BBX 7 7 0 0
BITMAP
7C
C6
C6
FC
CC
C6
46
ENDCHAR
STARTCHAR S
ENCODING 83
SWIDTH 778 0
DWIDTH 7 0
BBX 6 7 0 0
BITMAP
78
FC
C0
78
0C
FC
78
ENDCHAR
STARTCHAR T
ENCODING 84
SWIDTH 778 0
DWIDTH 7 0
BBX 6 7 0 0
BITMAP
78
FC
30
30
30
10
10
ENDCHAR
STARTCHAR U
ENCODING 85
SWIDTH 889 0
DWIDTH 8 0
BBX 7 7 0 0
BITMAP
44
C4
C6
C6
C6
CE
7C
ENDCHAR
STARTCHAR V
ENCODING 86
SWIDTH 889 0
DWIDTH 8 0
BBX 7 7 0 0
BITMAP
44
C6
C6
C6
44
6C
38
ENDCHAR
STARTCHAR W
ENCODING 87
SWIDTH 1112 0
DWIDTH 10 0
BBX 9 7 0 0
BITMAP
4100
C100
C180
C980
DD80
F780
6300
ENDCHAR
STARTCHAR X
ENCODING 88
SWIDTH 889 0
DWIDTH 8 0
BBX 7 7 0 0
BITMAP
C6
EE
78
38
3C
EE
C6
ENDCHAR
STARTCHAR Y
ENCODING 89
SWIDTH 778 0
DWIDTH 7 0
BBX 6 7 0 0
BITMAP
48
CC
CC
78
30
10
10
ENDCHAR
STARTCHAR Z
ENCODING 90
SWIDTH 778 0
DWIDTH 7 0
BBX 6 7 0 0
BITMAP
F8
7C
18
30
60
F0
FC
ENDCHAR
STARTCHAR bracketleft
ENCODING 91
SWIDTH 555 0
DWIDTH 5 0
BBX 4 7 0 0
BITMAP
F0
C0
C0
C0
C0
C0
70
ENDCHAR
STARTCHAR backslash
ENCODING 92
SWIDTH 555 0
DWIDTH 5 0
BBX 4 7 0 0
BITMAP
C0
60
60
30
30
30
10
ENDCHAR
STARTCHAR bracketright
ENCODING 93
SWIDTH 555 0
DWIDTH 5 0
BBX 4 7 0 0
BITMAP
E0
30
30
30
30
30
F0
ENDCHAR
STARTCHAR asciicircum
ENCODING 94
SWIDTH 666 0
DWIDTH 6 0
BBX 5 2 0 5
BITMAP
70
D8
ENDCHAR
STARTCHAR underscore
ENCODING 95
SWIDTH 778 0
DWIDTH 7 0
BBX 6 2 0 0
BITMAP
FC
FC
ENDCHAR
STARTCHAR grave
ENCODING 96
SWIDTH 333 0
DWIDTH 3 0
BBX 2 3 0 4
BITMAP
C0
C0
40
ENDCHAR
STARTCHAR a
ENCODING 97
SWIDTH 778 0
DWIDTH 7 0
BBX 6 5 0 0
BITMAP
78
CC
CC
CC
74
ENDCHAR
STARTCHAR b
ENCODING 98
SWIDTH 778 0
DWIDTH 7 0
BBX 6 7 0 0
BITMAP
70
E0
F8
CC
CC
CC
B8
ENDCHAR
STARTCHAR c
ENCODING 99
SWIDTH 666 0
DWIDTH 6 0
BBX 5 5 0 0
BITMAP
78
C8
C0
C0
78
ENDCHAR
STARTCHAR d
ENCODING 100
SWIDTH 778 0
DWIDTH 7 0
BBX 6 7 0 0
BITMAP
38
1C
7C
CC
CC
CC
74
ENDCHAR
STARTCHAR e
ENCODING 101
SWIDTH 778 0
DWIDTH 7 0
BBX 6 5 0 0
BITMAP
78
CC
CC
70
38
ENDCHAR
STARTCHAR f
ENCODING 102
SWIDTH 555 0
DWIDTH 5 0
BBX 4 7 0 0
BITMAP
30
70
C0
E0
C0
C0
40
ENDCHAR
STARTCHAR g
ENCODING 103
SWIDTH 778 0
DWIDTH 7 0
BBX 6 7 0 -2
BITMAP
74
CC
CC
CC
7C
18
70
ENDCHAR
STARTCHAR h
ENCODING 104
SWIDTH 778 0
DWIDTH 7 0
BBX 6 7 0 0
BITMAP
80
C0
F8
FC
CC
8C
88
ENDCHAR
STARTCHAR i
ENCODING 105
SWIDTH 444 0
DWIDTH 4 0
BBX 3 7 0 0
BITMAP
60
00
E0
60
60
60
20
ENDCHAR
STARTCHAR j
ENCODING 106
SWIDTH 444 0
DWIDTH 4 0
BBX 3 8 0 -1
BITMAP
60
00
E0
60
60
60
C0
80
ENDCHAR
STARTCHAR k
ENCODING 107
SWIDTH 666 0
DWIDTH 6 0
BBX 5 7 0 0
BITMAP
80
C0
D8
F0
E0
F0
D8
ENDCHAR
STARTCHAR l
ENCODING 108
SWIDTH 555 0
DWIDTH 5 0
BBX 4 7 0 0
BITMAP
30
60
60
C0
C0
C0
70
ENDCHAR
STARTCHAR m
ENCODING 109
SWIDTH 1000 0
DWIDTH 9 0
BBX 8 5 0 0
BITMAP
76
FF
DB
C3
42
ENDCHAR
STARTCHAR n
ENCODING 110
SWIDTH 889 0
DWIDTH 8 0
BBX 7 5 0 0
BITMAP
7C
CE
C6
C6
44
ENDCHAR
STARTCHAR o
ENCODING 111
SWIDTH 778 0
DWIDTH 7 0
BBX 6 5 0 0
BITMAP
78
CC
CC
CC
78
ENDCHAR
STARTCHAR p
ENCODING 112
SWIDTH 778 0
DWIDTH 7 0
BBX 6 7 0 -2
BITMAP
B8
CC
CC
CC
F8
C0
40
ENDCHAR
STARTCHAR q
ENCODING 113
SWIDTH 778 0
DWIDTH 7 0
BBX 6 7 0 -2
BITMAP
74
CC
CC
CC
7C
0C
08
ENDCHAR
STARTCHAR r
ENCODING 114
SWIDTH 555 0
DWIDTH 5 0
BBX 4 5 0 0
BITMAP
70
C0
C0
C0
40
ENDCHAR
STARTCHAR s
ENCODING 115
SWIDTH 666 0
DWIDTH 6 0
BBX 5 5 0 0
BITMAP
78
E0
70
38
F0
ENDCHAR
STARTCHAR t
ENCODING 116
SWIDTH 555 0
DWIDTH 5 0
BBX 4 7 0 0
BITMAP
20
60
F0
60
60
60
30
ENDCHAR
STARTCHAR u
ENCODING 117
SWIDTH 889 0
DWIDTH 8 0
BBX 7 5 0 0
BITMAP
44
C6
C6
CE
7C
ENDCHAR
STARTCHAR v
ENCODING 118
SWIDTH 889 0
DWIDTH 8 0
BBX 7 5 0 0
BITMAP
44
C6
C6
6C
38
ENDCHAR
STARTCHAR w
ENCODING 119
SWIDTH 1000 0
DWIDTH 9 0
BBX 8 5 0 0
BITMAP
42
C3
DB
FF
76
ENDCHAR
STARTCHAR x
ENCODING 120
SWIDTH 778 0
DWIDTH 7 0
BBX 6 5 0 0
BITMAP
CC
F8
30
7C
CC
ENDCHAR
STARTCHAR y
ENCODING 121
SWIDTH 778 0
DWIDTH 7 0
BBX 6 7 0 -2
BITMAP
44
C4
CC
FC
7C
1C
38
ENDCHAR
STARTCHAR z
ENCODING 122
SWIDTH 666 0
DWIDTH 6 0
BBX 5 5 0 0
BITMAP
F8
38
70
E0
F8
ENDCHAR
STARTCHAR braceleft
ENCODING 123
SWIDTH 555 0
DWIDTH 5 0
BBX 4 9 0 -2
BITMAP
30
60
60
C0
60
C0
60
60
30
ENDCHAR
STARTCHAR bar
ENCODING 124
SWIDTH 333 0
DWIDTH 3 0
BBX 2 9 0 -2
BITMAP
80
C0
C0
C0
C0
C0
C0
80
80
ENDCHAR
STARTCHAR braceright
ENCODING 125
SWIDTH 555 0
DWIDTH 5 0
BBX 4 9 0 -2
BITMAP
C0
60
60
30
60
30
60
60
C0
ENDCHAR
STARTCHAR asciitilde
ENCODING 126
SWIDTH 1000 0
DWIDTH 9 0
BBX 8 3 0 1
BITMAP
71
DB
8E
ENDCHAR
STARTCHAR uni00A0
ENCODING 160
SWIDTH 555 0
DWIDTH 5 0
BBX 1 1 0 0
BITMAP
00
ENDCHAR
STARTCHAR exclamdown
ENCODING 161
SWIDTH 333 0
DWIDTH 3 0
BBX 2 7 0 -2
BITMAP
C0
00
C0
C0
C0
C0
40
ENDCHAR
STARTCHAR cent
ENCODING 162
SWIDTH 778 0
DWIDTH 7 0
BBX 6 9 0 -2
BITMAP
10
10
7C
D4
D0
D0
7C
10
10
ENDCHAR
STARTCHAR sterling
ENCODING 163
SWIDTH 666 0
DWIDTH 6 0
BBX 5 7 0 0
BITMAP
18
38
60
F8
60
78
D8
ENDCHAR
STARTCHAR currency
ENCODING 164
SWIDTH 666 0
DWIDTH 6 0
BBX 5 5 0 0
BITMAP
88
70
50
70
88
ENDCHAR
STARTCHAR yen
ENCODING 165
SWIDTH 778 0
DWIDTH 7 0
BBX 6 9 0 -2
BITMAP
48
CC
CC
78
10
78
10
78
10
ENDCHAR
STARTCHAR brokenbar
ENCODING 166
SWIDTH 333 0
DWIDTH 3 0
BBX 2 9 0 -2
BITMAP
40
C0
C0
C0
00
C0
C0
80
80
ENDCHAR
STARTCHAR dieresis
ENCODING 168
SWIDTH 666 0
DWIDTH 6 0
BBX 5 2 0 5
BITMAP
D8
D8
ENDCHAR
STARTCHAR uni00B5
ENCODING 181
SWIDTH 889 0
DWIDTH 8 0
BBX 7 7 0 -2
BITMAP
44
C6
C6
CE
FC
C0
40
ENDCHAR
STARTCHAR paragraph
ENCODING 182
SWIDTH 1000 0
DWIDTH 9 0
BBX 8 7 0 0
BITMAP
7F
F3
F3
73
32
32
22
ENDCHAR
STARTCHAR periodcentered
ENCODING 183
SWIDTH 333 0
DWIDTH 3 0
BBX 2 2 0 2
BITMAP
C0
C0
ENDCHAR
STARTCHAR questiondown
ENCODING 191
SWIDTH 778 0
DWIDTH 7 0
BBX 6 7 0 -2
BITMAP
30
00
30
60
E4
FC
78
ENDCHAR
STARTCHAR AE
ENCODING 198
SWIDTH 1112 0
DWIDTH 10 0
BBX 9 7 0 0
BITMAP
7B80
CF80
CC00
FF00
CC00
CE00
4F80
ENDCHAR
STARTCHAR Oslash
ENCODING 216
SWIDTH 1000 0
DWIDTH 9 0
BBX 8 8 0 -1
BITMAP
3D
66
C7
CB
D3
E6
7E
80
ENDCHAR
STARTCHAR ae
ENCODING 230
SWIDTH 1223 0
DWIDTH 11 0
BBX 10 5 0 0
BITMAP
7780
0CC0
FCC0
CF00
7780
ENDCHAR
STARTCHAR oslash
ENCODING 248
SWIDTH 778 0
DWIDTH 7 0
BBX 6 7 0 -1
BITMAP
04
78
DC
FC
EC
78
80
ENDCHAR
STARTCHAR OE
ENCODING 338
SWIDTH 1334 0
DWIDTH 12 0
BBX 11 7 0 0
BITMAP
3FE0
67E0
C300
C3C0
C300
E780
7FE0
ENDCHAR
STARTCHAR oe
ENCODING 339
SWIDTH 1223 0
DWIDTH 11 0
BBX 10 5 0 0
BITMAP
7F80
CCC0
CCC0
CF00
7F80
ENDCHAR
STARTCHAR Euro
ENCODING 8364
SWIDTH 889 0
DWIDTH 8 0
BBX 7 9 0 -2
BITMAP
1E
38
30
FC
60
FC
30
38
1E
ENDCHAR
STARTCHAR uni3000
ENCODING 12288
SWIDTH 1779 0
DWIDTH 16 0
BBX 1 1 0 0
BITMAP
00
ENDCHAR
STARTCHAR .notdef
ENCODING -1
SWIDTH 649 0
DWIDTH 6 0
BBX 5 11 1 0
BITMAP
F8
88
88
88
88
88
88
88
88
88
F8
ENDCHAR
STARTCHAR .null
ENCODING -1
SWIDTH 0 0
DWIDTH 0 0
BBX 1 1 0 0
BITMAP
00
ENDCHAR
STARTCHAR nonmarkingreturn
ENCODING -1
SWIDTH 591 0
DWIDTH 5 0
BBX 1 1 0 0
BITMAP
00
ENDCHAR
ENDFONT
